<svg width="26" height="28" viewBox="0 0 26 28" fill="none" xmlns="http://www.w3.org/2000/svg">
    <path fill-rule="evenodd" clip-rule="evenodd" d="M0.273193 7.08836V20.5545L3.17501 22.1042V19.0049V18.3097V8.63876L10.4545 4.74948L7.55272 3.19983L0.273193 7.08836Z" fill="white" fill-opacity="0.9"/>
    <path fill-rule="evenodd" clip-rule="evenodd" d="M13.3107 0.364136L10.455 1.91264L14.6231 4.17212L14.6215 4.17363L22.8689 8.64558V16.4328L25.727 14.8836V7.09556L13.3107 0.364136Z" fill="white" fill-opacity="0.9"/>
    <path fill-rule="evenodd" clip-rule="evenodd" d="M21.6071 20.5004L21.6007 20.4895L13.4612 24.7915L6.38135 21.0486V24.0324L13.4612 27.7753L25.7259 21.2931V18.3231L21.6071 20.5004Z" fill="white" fill-opacity="0.9"/>
    <path fill-rule="evenodd" clip-rule="evenodd" d="M8.70129 16.3721V11.7671L12.9984 9.46502L17.2773 11.7571L14.9068 13.0453L12.9984 12.0229L11.0891 13.0461V15.0932L12.9984 16.1163L14.9068 15.0939L17.2773 16.3821L12.9984 18.6742L8.70129 16.3721ZM12.9984 6.9801L6.38135 10.5251V17.6142L12.9984 21.1584L19.6171 17.6142V10.5251L12.9984 6.9801Z" fill="white" fill-opacity="0.9"/>
</svg>
