<svg xmlns="http://www.w3.org/2000/svg">
    <symbol id="logo" viewBox="0 0 45 50" preserveAspectRatio="xMinYMin">
        <path d="M0.931152 12.2653V36.8285L5.84518 39.6552V34.0019V32.7337V15.0933L18.1726 7.99903L13.2585 5.17236L0.931152 12.2653Z"/>
        <path d="M23.0088 0L18.1729 2.82458L25.2312 6.94601L25.2285 6.94878L39.195 15.1059V29.3104L44.035 26.4844V12.2786L23.0088 0Z"/>
        <path d="M37.0597 36.7301L37.0489 36.7101L23.2652 44.5573L11.2759 37.7299V43.1726L23.2652 50L44.0345 38.1759V32.7585L37.0597 36.7301Z"/>
        <path d="M15.2045 29.2007V20.801L22.4814 16.6018L29.7274 20.7827L25.7132 23.1324L22.4814 21.2675L19.2482 23.1338V26.8679L22.4814 28.7342L25.7132 26.8693L29.7274 29.219L22.4814 33.3999L15.2045 29.2007ZM22.4814 12.0691L11.2759 18.5353V31.4664L22.4814 37.9312L33.6897 31.4664V18.5353L22.4814 12.0691Z"/>
    </symbol>
</svg>
