<?xml version="1.0" encoding="UTF-8"?>
<svg width="118px" height="36px" viewBox="0 0 118 36" version="1.1" xmlns="http://www.w3.org/2000/svg" xmlns:xlink="http://www.w3.org/1999/xlink">
    <!-- Generator: sketchtool 53.2 (72643) - https://sketchapp.com -->
    <title>6ED6B73E-3906-4A1A-9F0C-D290C91941C3</title>
    <desc>Created with sketchtool.</desc>
    <g id="Carrier" stroke="none" stroke-width="1" fill="none" fill-rule="evenodd">
        <g id="Carrier---Desktop-" transform="translate(-130.000000, -33.000000)">
            <g id="SECTION-1-(hero-banner)" transform="translate(0.000000, -1.000000)">
                <g id="Header" transform="translate(0.000000, 1.000000)">
                    <rect id="header-bg" x="2.95585778e-12" y="0" width="1440" height="100"></rect>
                    <g id="Logo/dt/primary/primary-color-1" transform="translate(130.000000, 33.000000)" fill="#5712B0">
                        <g id="Logo-Carrier-Copy-2" transform="translate(39.000000, 6.000000)">
                            <path d="M7.08,18.24 C3.76,18.24 0.88,16.04 0.88,11.6 C0.88,7.24 3.88,4.76 7.16,4.76 C8.88,4.76 10.28,5.56 11.2,6.48 L9.4,8.68 C8.76,8.12 8.12,7.72 7.24,7.72 C5.72,7.72 4.4,9.12 4.4,11.48 C4.4,13.92 5.52,15.28 7.2,15.28 C8.2,15.28 9,14.76 9.56,14.16 L11.36,16.32 C10.26,17.6 8.76,18.24 7.08,18.24 Z M16.3,12.58 L18.7,12.58 L18.48,11.68 C18.16,10.44 17.84,8.86 17.52,7.56 L17.44,7.56 C17.16,8.88 16.84,10.44 16.52,11.68 L16.3,12.58 Z M19.96,18 L19.32,15.24 L15.68,15.24 L15.04,18 L11.52,18 L15.48,5 L19.64,5 L23.6,18 L19.96,18 Z M28.28,7.72 L28.28,10.92 L29.52,10.92 C30.88,10.92 31.6,10.32 31.6,9.2 C31.6,8.08 30.88,7.72 29.52,7.72 L28.28,7.72 Z M35.68,18 L31.84,18 L29.6,13.64 L28.28,13.64 L28.28,18 L24.84,18 L24.84,5 L29.76,5 C32.56,5 34.96,5.96 34.96,9.2 C34.96,11.06 34.12,12.28 32.86,12.96 L35.68,18 Z M40.88,7.72 L40.88,10.92 L42.12,10.92 C43.48,10.92 44.2,10.32 44.2,9.2 C44.2,8.08 43.48,7.72 42.12,7.72 L40.88,7.72 Z M48.28,18 L44.44,18 L42.2,13.64 L40.88,13.64 L40.88,18 L37.44,18 L37.44,5 L42.36,5 C45.16,5 47.56,5.96 47.56,9.2 C47.56,11.06 46.72,12.28 45.46,12.96 L48.28,18 Z M50.04,18 L50.04,5 L53.48,5 L53.48,18 L50.04,18 Z M56.36,18 L56.36,5 L64.76,5 L64.76,7.88 L59.8,7.88 L59.8,9.92 L64.04,9.92 L64.04,12.8 L59.8,12.8 L59.8,15.12 L64.96,15.12 L64.96,18 L56.36,18 Z M70.92,7.72 L70.92,10.92 L72.16,10.92 C73.52,10.92 74.24,10.32 74.24,9.2 C74.24,8.08 73.52,7.72 72.16,7.72 L70.92,7.72 Z M78.32,18 L74.48,18 L72.24,13.64 L70.92,13.64 L70.92,18 L67.48,18 L67.48,5 L72.4,5 C75.2,5 77.6,5.96 77.6,9.2 C77.6,11.06 76.76,12.28 75.5,12.96 L78.32,18 Z" id="CARRIER" fill-rule="nonzero"></path>
                        </g>
                        <g id="Group-5">
                            <polygon id="Fill-1" points="0.0009 8.881 0.0009 26.643 3.5419 28.687 3.5419 24.599 3.5419 23.682 3.5419 10.926 12.4249 5.796 8.8839 3.752"></polygon>
                            <polygon id="Fill-2" points="15.3819 -0.0002 11.8439 2.0428 17.0079 5.0238 17.0059 5.0258 27.2239 10.9258 27.2239 21.1998 30.7649 19.1558 30.7649 8.8808"></polygon>
                            <polygon id="Fill-3" points="25.5987 25.5571 25.5907 25.5421 15.3817 31.4361 6.5017 26.3081 6.5017 30.3961 15.3817 35.5241 30.7647 26.6431 30.7647 22.5741"></polygon>
                            <path d="M10.1919,20.76 L10.1919,14.765 L15.3819,11.768 L20.5499,14.752 L17.6869,16.429 L15.3819,15.098 L13.0759,16.43 L13.0759,19.095 L15.3819,20.427 L17.6869,19.096 L20.5499,20.773 L15.3819,23.757 L10.1919,20.76 Z M15.3819,8.533 L7.3899,13.148 L7.3899,22.377 L15.3819,26.991 L23.3759,22.377 L23.3759,13.148 L15.3819,8.533 Z" id="Fill-4"></path>
                        </g>
                    </g>
                </g>
            </g>
        </g>
    </g>
</svg>